<svg width="2.4rem" height="2.4rem" viewBox="0 0 24 24" version="1.1" xmlns="http://www.w3.org/2000/svg" xmlns:xlink="http://www.w3.org/1999/xlink" data-tid="32b66994"><path fill-rule="evenodd" clip-rule="evenodd" d="M11.9007 3C8.19101 3.00035 5.62048 3.01269 4.30101 4.30119C3.01257 5.62037 3.00023 8.31161 3.00023 11.9007C6.98546 11.7804 8.80788 11.6806 10.2614 10.2613C11.6806 8.80777 11.7805 6.98539 11.9007 3ZM4.30078 19.6989C3.01234 18.3798 3 15.6885 3 12.0995C6.98523 12.2197 8.80766 12.3195 10.2612 13.7389C11.6804 15.1924 11.7802 17.0148 11.9005 20.9998C8.19078 20.9998 5.62025 20.9878 4.30078 19.6989ZM12.0994 20.9998C12.2197 17.0148 12.3195 15.1924 13.7388 13.7389C15.1923 12.3195 17.0147 12.2197 20.9999 12.0995C20.9996 15.6885 20.9872 18.3798 19.6988 19.6989C18.3793 20.9878 15.8092 20.9998 12.0994 20.9998ZM12.0994 3C12.2197 6.98539 12.3195 8.80777 13.7388 10.2613C15.1923 11.6806 17.0147 11.7804 20.9999 11.9007C20.9996 8.31161 20.9872 5.62037 19.6988 4.30119C18.3793 3.01269 15.8092 3.00035 12.0994 3Z" fill="#949494"></path></svg>